# xmcd CD database file
#
# Track frame offsets:
#	150
#	15702
#	37050
#	64377
#
# Disc length: 1061 seconds
#
# Revision: 0
# Processed by: cddbd v1.5.1PL0 Copyright (c) Steve Scherf et al.
# Submitted via: CDex 1.51
#
DISCID=33042304
DTITLE=中川晃教 - White Shiny Street
DYEAR=2002
DGENRE=New Age
TTITLE0=White Shiny Street
TTITLE1=JUST CALL MY NAME
TTITLE2=Light my way
TTITLE3=White Shiny Street (instrumental)
EXTD=YEAR: 20020529
EXTT0=
EXTT1=
EXTT2=
EXTT3=
PLAYORDER=
